# xmcd
# Track frame offsets:
# 150
# 13982
# 28097
# 42437
# 52552
# 67997
# 84082
# 105667
# 123490
# 140227
# 151070
# 163170
#
# Disc length: 2367 seconds
# Revision: 0
# Processed by: cddbd v1.4PL0 Copyright (c) Steve Scherf et al.
# Submitted via: VisiTrax 2.9.5.180 - For more info visit www.synapsa.com
#
DISCID=96093d0c
DTITLE=Carter - Lonesome memories
DYEAR=1900
DGENRE=
TTITLE0=Lonesome man blues
TTITLE1=Tribute to Roy Acuff
TTITLE2=Hello lonely world
TTITLE3=Ain't no getting well
TTITLE4=The life ou drove me to
TTITLE5=Have a good cry
TTITLE6=Songs for a memory
TTITLE7=I can't find my mind
TTITLE8=The bottom just fell out of Texas
TTITLE9=I need
TTITLE10=I'd liketo see you again
TTITLE11=Hot and dusty road
EXTD=
EXTT0=
EXTT1=
EXTT2=
EXTT3=
EXTT4=
EXTT5=
EXTT6=
EXTT7=
EXTT8=
EXTT9=
EXTT10=
EXTT11=
PLAYORDER=
